<svg width="32" height="32" viewBox="0 0 32 32" fill="none" xmlns="http://www.w3.org/2000/svg">
<g clip-path="url(#clip0_347_179)">
<path d="M23 31H9C4.6 31 1 27.4 1 23V9C1 4.6 4.6 1 9 1H23C27.4 1 31 4.6 31 9V23C31 27.4 27.4 31 23 31Z" stroke="#008AFF" stroke-width="2" stroke-miterlimit="10" stroke-linecap="round" stroke-linejoin="round"/>
<path d="M10.5 16H5V9H10.5C12.4 9 14 10.6 14 12.5C14 14.4 12.4 16 10.5 16Z" stroke="#008AFF" stroke-width="2" stroke-miterlimit="10" stroke-linecap="round" stroke-linejoin="round"/>
<path d="M10 24H5V16H10C12.2 16 14 17.8 14 20C14 22.2 12.2 24 10 24Z" stroke="#008AFF" stroke-width="2" stroke-miterlimit="10" stroke-linecap="round" stroke-linejoin="round"/>
<path d="M19 11H25" stroke="#008AFF" stroke-width="2" stroke-miterlimit="10" stroke-linecap="round" stroke-linejoin="round"/>
<path d="M26.3 21.5C26 22 25.6 22.5 25.1 22.9C24.2 23.6 23.1 24 21.9 24C19.1 24 16.9 21.8 16.9 19C16.9 16.2 19.1 14 21.9 14C24.7 14 26.9 16.2 26.9 19H17" stroke="#008AFF" stroke-width="2" stroke-miterlimit="10" stroke-linecap="round" stroke-linejoin="round"/>
</g>
<defs>
<clipPath id="clip0_347_179">
<rect width="32" height="32" fill="white"/>
</clipPath>
</defs>
</svg>
