<svg width="32" height="32" viewBox="0 0 32 32" fill="none" xmlns="http://www.w3.org/2000/svg">
<g clip-path="url(#clip0_332_145)">
<path fill-rule="evenodd" clip-rule="evenodd" d="M13.2104 7.80103H19.1129C20.9756 7.80103 22.4857 9.13583 22.4857 10.7824C22.4857 11.9049 21.7839 12.8825 20.747 13.3911C21.7839 13.8997 22.4857 14.8773 22.4857 15.9998C22.4857 17.6463 20.9756 18.9812 19.1129 18.9812C18.1055 18.9812 17.2012 18.5907 16.5832 17.9718V21.2172C16.5832 22.8637 15.0731 24.1985 13.2104 24.1985C11.3476 24.1985 9.83752 22.8637 9.83752 21.2172C9.83752 20.0947 10.5393 19.1171 11.5762 18.6085C10.5393 18.0999 9.83752 17.1223 9.83752 15.9998C9.83752 14.8773 10.5393 13.8997 11.5762 13.3911C10.5393 12.8825 9.83752 11.9049 9.83752 10.7824C9.83752 9.13583 11.3476 7.80103 13.2104 7.80103ZM21.6425 10.7824C21.6425 12.0173 20.51 13.0184 19.1129 13.0184H16.5832V8.54637H19.1129C20.51 8.54637 21.6425 9.54747 21.6425 10.7824ZM15.74 13.7638V18.2358H13.2104C11.8133 18.2358 10.6807 17.2347 10.6807 15.9998C10.6807 14.7648 11.8133 13.7638 13.2104 13.7638H15.74ZM19.1129 13.7638C17.7158 13.7638 16.5832 14.7648 16.5832 15.9998C16.5832 17.2347 17.7158 18.2358 19.1129 18.2358C20.51 18.2358 21.6425 17.2347 21.6425 15.9998C21.6425 14.7648 20.51 13.7638 19.1129 13.7638ZM15.74 18.9812H13.2104C11.8133 18.9812 10.6807 19.9822 10.6807 21.2172C10.6807 22.4521 11.8133 23.4532 13.2104 23.4532C14.6075 23.4532 15.74 22.4521 15.74 21.2172V18.9812ZM15.74 13.0184H13.2104C11.8133 13.0184 10.6807 12.0173 10.6807 10.7824C10.6807 9.54747 11.8133 8.54637 13.2104 8.54637H15.74V13.0184Z" fill="#292F36"/>
</g>
<path fill-rule="evenodd" clip-rule="evenodd" d="M16 31.3469C24.6695 31.3469 31.4825 24.3424 31.4825 16C31.4825 7.65762 24.6695 0.653061 16 0.653061C7.33051 0.653061 0.517492 7.65762 0.517492 16C0.517492 24.3424 7.33051 31.3469 16 31.3469ZM16 32C24.8366 32 32 24.8366 32 16C32 7.16344 24.8366 0 16 0C7.16344 0 0 7.16344 0 16C0 24.8366 7.16344 32 16 32Z" fill="#292F36"/>
<defs>
<clipPath id="clip0_332_145">
<rect width="19.3939" height="17.1429" fill="white" transform="translate(6.46466 7.42847)"/>
</clipPath>
</defs>
</svg>
