<svg width="24" height="25" viewBox="0 0 24 25" fill="none" xmlns="http://www.w3.org/2000/svg">
<g clip-path="url(#clip0_151_5388)">
<path d="M11.9985 0.5C5.37301 0.5 6.92471e-06 5.894 6.92471e-06 12.548C-0.00270001 15.0733 0.788278 17.5356 2.26115 19.5869C3.73403 21.6383 5.81432 23.1748 8.20801 23.9795C8.80801 24.0905 9.02701 23.7185 9.02701 23.399C9.02701 23.1125 9.01651 22.355 9.01051 21.35C5.67301 22.0775 4.96801 19.7345 4.96801 19.7345C4.42351 18.3425 3.63601 17.972 3.63601 17.972C2.54551 17.225 3.71701 17.24 3.71701 17.24C4.92151 17.3255 5.55451 18.482 5.55451 18.482C6.62551 20.3225 8.36401 19.7915 9.04801 19.4825C9.15601 18.704 9.46651 18.173 9.81001 17.8715C7.14601 17.567 4.34401 16.5335 4.34401 11.918C4.34401 10.6025 4.81201 9.527 5.58001 8.684C5.45551 8.3795 5.04451 7.154 5.69701 5.4965C5.69701 5.4965 6.70501 5.1725 8.99701 6.731C9.97613 6.46342 10.9865 6.32723 12.0015 6.326C13.0166 6.32802 14.0269 6.46471 15.006 6.7325C17.2965 5.174 18.303 5.498 18.303 5.498C18.957 7.157 18.546 8.381 18.423 8.6855C19.1925 9.5285 19.656 10.604 19.656 11.9195C19.656 16.547 16.851 17.5655 14.178 17.864C14.6085 18.236 14.9925 18.971 14.9925 20.0945C14.9925 21.7055 14.9775 23.0045 14.9775 23.399C14.9775 23.7215 15.1935 24.0965 15.8025 23.978C18.1939 23.1714 20.2716 21.6343 21.7424 19.5835C23.2132 17.5326 24.0029 15.0717 24 12.548C24 5.894 18.627 0.5 11.9985 0.5Z" fill="white"/>
</g>
<defs>
<clipPath id="clip0_151_5388">
<rect width="24" height="24" fill="white" transform="translate(0 0.5)"/>
</clipPath>
</defs>
</svg>
