<svg width="493" height="404" viewBox="0 0 493 404" fill="none" xmlns="http://www.w3.org/2000/svg">
<g clip-path="url(#clip0_158_10329)">
<path d="M493 391.648C493.151 407.388 393.744 408.83 391.85 391.649C391.7 375.911 491.106 374.468 493 391.648Z" fill="#E6E6E6"/>
<path d="M415.225 337.008L407.837 341.028L412.538 356.441L419.926 357.111L423.956 348.4L415.225 337.008Z" fill="#C69572"/>
<path d="M438.06 367.833V375.203L449.477 374.533L449.318 368.463L438.06 367.833Z" fill="#C69572"/>
<path d="M412.538 248.554L416.568 298.812L429.329 372.523L449.477 369.842L442.761 311.544L445.447 257.936L412.538 248.554Z" fill="#0E0E0E"/>
<path d="M466.267 211.029L417.911 211.699L412.538 248.554L445.447 263.967L453.506 293.451L412.538 337.008L428.657 357.111C428.657 357.111 451.492 326.286 468.282 308.864C485.072 291.441 477.013 238.503 477.013 238.503L466.267 211.029Z" fill="#0E0E0E"/>
<path d="M437.388 115.874C445.548 115.874 452.163 109.274 452.163 101.132C452.163 92.9898 445.548 86.3895 437.388 86.3895C429.228 86.3895 422.612 92.9898 422.612 101.132C422.612 109.274 429.228 115.874 437.388 115.874Z" fill="#C69572"/>
<path d="M432.015 111.183V125.926L442.089 142.008C442.089 142.008 457.536 130.616 454.178 127.936C450.82 125.255 450.148 104.482 450.148 104.482L432.015 111.183Z" fill="#C69572"/>
<path d="M432.015 123.245L421.941 135.307L425.971 219.069L457.536 218.399L462.909 145.359L456.193 126.596L451.586 120.342L443.432 132.626L432.015 123.245Z" fill="#D0CDE1"/>
<path d="M415.896 166.802L408.509 194.946L415.896 223.091L403.807 239.173L393.062 188.245C393.062 188.245 401.121 146.699 401.793 142.008C402.464 137.317 403.807 136.647 403.807 136.647L409.18 137.317L415.896 166.802Z" fill="#0E0E0E"/>
<path d="M469.625 177.523L474.326 186.235L475.67 200.977L472.984 217.729L482.386 233.142L491.788 190.925L481.714 136.647H477.684L469.625 177.523Z" fill="#0E0E0E"/>
<path d="M412.538 336.338C412.538 336.338 403.136 339.018 399.777 339.688C396.419 340.358 401.792 353.09 401.792 353.09C401.792 353.09 405.15 370.513 405.822 373.864C406.494 377.214 411.195 388.606 417.239 389.946C423.284 391.286 419.254 366.493 419.254 366.493C419.254 366.493 421.941 358.451 421.941 355.771C421.941 353.09 417.911 354.431 417.911 354.431C407.165 353.09 412.538 336.338 412.538 336.338Z" fill="#0E0E0E"/>
<path d="M434.702 387.936C435.373 391.956 434.03 391.956 444.776 393.297C455.522 394.637 452.835 385.925 452.835 385.925C452.386 381.819 451.485 377.774 450.149 373.864C448.134 368.503 437.388 375.204 437.388 375.204C437.388 375.204 434.03 383.915 434.702 387.936Z" fill="#0E0E0E"/>
<path d="M450.166 104.95L450.516 110.91C450.516 110.91 454.85 101.132 455.521 91.0802C456.193 81.0287 444.776 79.0184 438.06 78.3483C431.343 77.6782 419.926 82.3689 419.926 87.7297C419.926 93.0905 432.015 91.7503 436.716 90.4101C441.418 89.0699 443.432 100.462 443.432 100.462L446.119 101.132L450.166 104.95Z" fill="#0E0E0E"/>
<path d="M428.051 127.991L432.015 123.245L443.432 132.626L432.015 140.668L428.051 127.991Z" fill="#D0CDE1"/>
<path d="M456.193 126.596L451.492 120.565L443.432 132.626L453.507 139.998L456.193 126.596Z" fill="#D0CDE1"/>
<path d="M413.882 176.183L416.568 201.647L411.195 217.06L407.837 231.802C407.837 231.802 407.837 245.874 421.269 246.544C434.702 247.214 446.119 204.328 446.119 204.328C446.119 204.328 448.134 213.709 449.477 219.07C450.82 224.431 473.655 245.874 473.655 245.874C473.655 245.874 479.028 245.204 483.729 234.482C488.431 223.761 474.327 213.709 474.327 213.709L470.297 199.637L471.64 182.214L481.043 136.647L453.171 122.24L456.193 160.771L446.119 190.926L431.008 124.25L425.971 127.936L404.479 136.647L413.882 176.183Z" fill="#0E0E0E"/>
<path d="M148.454 277.537C147.126 277.527 145.783 277.518 144.464 277.477L144.504 276.15C145.81 276.19 147.145 276.208 148.454 276.209C149.769 276.209 151.109 276.188 152.439 276.145L152.482 277.472C151.138 277.515 149.783 277.537 148.454 277.537ZM136.463 276.977C133.814 276.726 131.138 276.387 128.51 275.969L128.72 274.658C131.32 275.072 133.967 275.407 136.588 275.655L136.463 276.977ZM160.481 276.962L160.354 275.641C162.975 275.391 165.622 275.051 168.221 274.634L168.433 275.945C165.805 276.367 163.13 276.709 160.481 276.962ZM120.638 274.454C118.044 273.867 115.434 273.187 112.88 272.434L113.258 271.161C115.784 271.906 118.366 272.578 120.933 273.158L120.638 274.454ZM176.303 274.421L176.007 273.126C178.58 272.541 181.161 271.866 183.68 271.12L184.059 272.393C181.513 273.147 178.903 273.829 176.303 274.421ZM105.268 269.921C102.765 269.004 100.26 267.994 97.8241 266.918L98.3628 265.704C100.773 266.767 103.25 267.767 105.727 268.675L105.268 269.921ZM191.667 269.869L191.207 268.623C193.668 267.719 196.137 266.719 198.546 265.653L199.086 266.867C196.651 267.945 194.155 268.955 191.667 269.869ZM90.5921 263.442C88.2364 262.216 85.8838 260.893 83.6005 259.512L84.2907 258.376C86.5499 259.743 88.8771 261.051 91.2078 262.265L90.5921 263.442ZM206.297 263.394L205.681 262.217C208.007 261.004 210.329 259.696 212.582 258.33L213.273 259.464C210.995 260.846 208.649 262.167 206.297 263.394ZM76.8777 255.143C74.6957 253.624 72.5333 252.012 70.4499 250.355L71.2797 249.316C73.3411 250.957 75.4808 252.551 77.6393 254.054L76.8777 255.143ZM219.985 255.096L219.222 254.007C221.38 252.503 223.517 250.909 225.573 249.27L226.404 250.308C224.325 251.964 222.166 253.574 219.985 255.096ZM64.3421 245.167C62.3698 243.381 60.4306 241.509 58.5794 239.604L59.5347 238.68C61.3664 240.564 63.2851 242.416 65.237 244.184L64.3421 245.167ZM232.505 245.121L231.61 244.138C233.557 242.374 235.474 240.521 237.308 238.632L238.264 239.555C236.41 241.465 234.472 243.337 232.505 245.121ZM53.1843 233.688C51.4573 231.668 49.7735 229.567 48.179 227.442L49.2445 226.646C50.822 228.748 52.4879 230.828 54.1968 232.826L53.1843 233.688ZM243.657 233.633L242.645 232.772C244.353 230.772 246.02 228.69 247.597 226.585L248.663 227.38C247.069 229.508 245.385 231.612 243.657 233.633ZM43.5842 220.891C42.1281 218.666 40.727 216.369 39.4195 214.063L40.5782 213.409C41.8714 215.691 43.2579 217.964 44.6987 220.165L43.5842 220.891ZM253.259 220.819L252.144 220.094C253.585 217.889 254.972 215.612 256.265 213.325L257.425 213.977C256.117 216.289 254.716 218.591 253.259 220.819ZM35.7029 206.983C34.5449 204.593 33.4508 202.137 32.4513 199.682L33.6841 199.183C34.6732 201.611 35.7556 204.041 36.9013 206.405L35.7029 206.983ZM261.143 206.88L259.944 206.302C261.089 203.935 262.172 201.498 263.162 199.059L264.396 199.556C263.395 202.022 262.301 204.486 261.143 206.88ZM29.6732 192.178C28.8313 189.656 28.0622 187.076 27.3869 184.51L28.6743 184.173C29.3421 186.711 30.1031 189.264 30.9359 191.758L29.6732 192.178ZM267.169 192.038L265.906 191.62C266.733 189.128 267.492 186.575 268.158 184.031L269.446 184.367C268.772 186.939 268.006 189.519 267.169 192.038ZM25.6014 176.712C25.0929 174.107 24.6627 171.45 24.3225 168.816L25.6424 168.646C25.979 171.252 26.4047 173.88 26.9077 176.458L25.6014 176.712ZM271.222 176.566L269.916 176.314C270.415 173.738 270.838 171.108 271.171 168.5L272.492 168.669C272.155 171.305 271.727 173.962 271.222 176.566ZM23.5531 160.855C23.3825 158.208 23.2944 155.518 23.2915 152.858L24.6224 152.857C24.6253 155.488 24.7124 158.15 24.8814 160.769L23.5531 160.855ZM273.252 160.706L271.924 160.622C272.09 158.006 272.173 155.344 272.173 152.712L272.173 152.421H273.504L273.504 152.707C273.504 155.372 273.419 158.061 273.252 160.706ZM24.8629 144.947L23.5346 144.865C23.6996 142.213 23.9521 139.534 24.2851 136.901L25.6057 137.067C25.2759 139.673 25.026 142.323 24.8629 144.947ZM271.906 144.511C271.733 141.886 271.474 139.236 271.135 136.635L272.454 136.464C272.797 139.093 273.059 141.771 273.234 144.424L271.906 144.511ZM26.8521 129.253L25.5453 129.002C26.0473 126.396 26.6419 123.77 27.3119 121.2L28.5999 121.533C27.9371 124.077 27.3489 126.674 26.8521 129.253ZM269.859 128.824C269.352 126.244 268.755 123.65 268.084 121.111L269.371 120.773C270.049 123.338 270.653 125.961 271.166 128.569L269.859 128.824ZM30.8439 113.943L29.5799 113.526C30.4153 111.003 31.3453 108.472 32.3444 106.003L33.5785 106.501C32.5901 108.943 31.6702 111.447 30.8439 113.943ZM265.815 113.529C264.979 111.036 264.051 108.539 263.058 106.108L264.29 105.606C265.295 108.064 266.232 110.588 267.077 113.107L265.815 113.529ZM36.7889 99.2514L35.5892 98.6756C36.7437 96.281 37.9921 93.8917 39.2993 91.5743L40.4593 92.2259C39.1657 94.5184 37.931 96.8821 36.7889 99.2514ZM259.833 98.8892C258.686 96.5313 257.447 94.1763 256.147 91.8897L257.305 91.2348C258.619 93.5458 259.872 95.9264 261.03 98.3102L259.833 98.8892ZM44.5729 85.4511L43.4571 84.7269C44.9086 82.5009 46.4523 80.2915 48.0451 78.1605L49.1122 78.9541C47.5363 81.0627 46.0088 83.2485 44.5729 85.4511ZM252.019 85.1386C250.578 82.9441 249.047 80.7651 247.465 78.6623L248.529 77.8654C250.128 79.9909 251.677 82.1932 253.132 84.4111L252.019 85.1386ZM54.057 72.7615L53.0432 71.9018C54.767 69.8784 56.5792 67.8839 58.4293 65.9741L59.3866 66.8967C57.5559 68.7865 55.7629 70.7599 54.057 72.7615ZM242.505 72.4879C240.794 70.4918 238.995 68.5242 237.16 66.64L238.114 65.7147C239.969 67.6187 241.787 69.6074 243.516 71.6249L242.505 72.4879ZM65.0784 61.383L64.1822 60.4013C66.1517 58.6114 68.2026 56.8637 70.2776 55.207L71.1095 56.2438C69.0562 57.8829 67.027 59.6122 65.0784 61.383ZM231.451 61.1421C229.499 59.3795 227.465 57.6554 225.402 56.0181L226.231 54.9788C228.315 56.6338 230.372 58.3761 232.344 60.1579L231.451 61.1421ZM77.4551 51.4991L76.6915 50.4117C78.8692 48.8889 81.1255 47.4167 83.3978 46.0356L84.0902 47.1697C81.8423 48.5362 79.6097 49.9929 77.4551 51.4991ZM219.037 51.2877C216.871 49.7831 214.631 48.3313 212.381 46.9726L213.07 45.8366C215.344 47.2096 217.608 48.6769 219.798 50.1978L219.037 51.2877ZM90.9865 43.2741L90.3685 42.0979C92.7213 40.8666 95.1466 39.6949 97.5761 38.6156L98.1175 39.8288C95.7136 40.8964 93.3147 42.0557 90.9865 43.2741ZM205.459 43.0919C203.122 41.8781 200.713 40.7242 198.3 39.6622L198.838 38.4471C201.277 39.5205 203.711 40.687 206.074 41.9137L205.459 43.0919ZM105.453 36.85L104.991 35.6044C107.486 34.6834 110.045 33.8314 112.596 33.0724L112.977 34.3452C110.453 35.0957 107.921 35.9387 105.453 36.85ZM190.932 36.6993C188.459 35.7964 185.924 34.9625 183.399 34.2214L183.775 32.9473C186.327 33.6965 188.889 34.5395 191.39 35.4524L190.932 36.6993ZM120.647 32.3303L120.35 31.0361C122.939 30.4441 125.586 29.9283 128.218 29.502L128.431 30.8131C125.827 31.2345 123.208 31.7448 120.647 32.3303ZM175.722 32.2337C173.156 31.6567 170.535 31.1555 167.932 30.7437L168.141 29.432C170.771 29.8483 173.42 30.355 176.014 30.9382L175.722 32.2337ZM136.297 29.7967L136.168 28.4753C138.811 28.2195 141.502 28.0447 144.167 27.9562L144.212 29.2835C141.574 29.371 138.911 29.5438 136.297 29.7967ZM160.063 29.7555C157.444 29.5114 154.78 29.348 152.146 29.2699L152.186 27.9426C154.848 28.0217 157.54 28.1867 160.186 28.4335L160.063 29.7555Z" fill="#D0CDE1"/>
<path d="M143.74 62.4127C161.013 62.4127 175.016 48.4412 175.016 31.2064C175.016 13.9716 161.013 0 143.74 0C126.466 0 112.463 13.9716 112.463 31.2064C112.463 48.4412 126.466 62.4127 143.74 62.4127Z" fill="#008AFF"/>
<path d="M264.853 147.4C282.127 147.4 296.13 133.429 296.13 116.194C296.13 98.9591 282.127 84.9875 264.853 84.9875C247.58 84.9875 233.577 98.9591 233.577 116.194C233.577 133.429 247.58 147.4 264.853 147.4Z" fill="#008AFF"/>
<path d="M226.922 277.537C244.196 277.537 258.199 263.566 258.199 246.331C258.199 229.096 244.196 215.125 226.922 215.125C209.649 215.125 195.646 229.096 195.646 246.331C195.646 263.566 209.649 277.537 226.922 277.537Z" fill="#008AFF"/>
<path d="M76.528 282.849C93.8016 282.849 107.805 268.878 107.805 251.643C107.805 234.408 93.8016 220.436 76.528 220.436C59.2544 220.436 45.2513 234.408 45.2513 251.643C45.2513 268.878 59.2544 282.849 76.528 282.849Z" fill="#008AFF"/>
<path d="M31.2766 147.4C48.5503 147.4 62.5533 133.429 62.5533 116.194C62.5533 98.9591 48.5503 84.9875 31.2766 84.9875C14.003 84.9875 0 98.9591 0 116.194C0 133.429 14.003 147.4 31.2766 147.4Z" fill="#008AFF"/>
<path d="M157.143 28.7184H146.233C145.241 28.7184 144.29 28.3252 143.588 27.6253C142.887 26.9254 142.493 25.9762 142.493 24.9864V14.1015C142.493 14.0606 142.485 14.0202 142.469 13.9824C142.453 13.9447 142.43 13.9104 142.401 13.8815C142.372 13.8527 142.338 13.8298 142.3 13.8141C142.262 13.7985 142.222 13.7905 142.181 13.7905H135.012C133.689 13.7905 132.421 14.3147 131.485 15.2479C130.55 16.1811 130.025 17.4467 130.025 18.7664V43.6462C130.025 44.9659 130.55 46.2316 131.485 47.1648C132.421 48.098 133.689 48.6222 135.012 48.6222H152.467C153.79 48.6222 155.058 48.098 155.994 47.1648C156.929 46.2316 157.454 44.9659 157.454 43.6462V29.0294C157.454 28.9885 157.446 28.9481 157.431 28.9103C157.415 28.8726 157.392 28.8383 157.363 28.8094C157.334 28.7806 157.3 28.7577 157.262 28.742C157.224 28.7264 157.183 28.7184 157.143 28.7184ZM149.973 41.1583H137.506C137.175 41.1583 136.858 41.0272 136.624 40.7939C136.39 40.5606 136.259 40.2442 136.259 39.9143C136.259 39.5843 136.39 39.2679 136.624 39.0346C136.858 38.8013 137.175 38.6703 137.506 38.6703H149.973C150.304 38.6703 150.621 38.8013 150.855 39.0346C151.089 39.2679 151.22 39.5843 151.22 39.9143C151.22 40.2442 151.089 40.5606 150.855 40.7939C150.621 41.0272 150.304 41.1583 149.973 41.1583ZM149.973 34.9383H137.506C137.175 34.9383 136.858 34.8072 136.624 34.574C136.39 34.3407 136.259 34.0243 136.259 33.6943C136.259 33.3644 136.39 33.048 136.624 32.8147C136.858 32.5814 137.175 32.4503 137.506 32.4503H149.973C150.304 32.4503 150.621 32.5814 150.855 32.8147C151.089 33.048 151.22 33.3644 151.22 33.6943C151.22 34.0243 151.089 34.3407 150.855 34.574C150.621 34.8072 150.304 34.9383 149.973 34.9383Z" fill="white"/>
<path d="M156.458 25.9653L145.252 14.7841C145.23 14.7625 145.203 14.7478 145.172 14.7418C145.142 14.7359 145.111 14.739 145.083 14.7507C145.054 14.7624 145.03 14.7822 145.013 14.8077C144.996 14.8331 144.986 14.8631 144.986 14.8937V24.9864C144.986 25.3163 145.118 25.6327 145.352 25.866C145.585 26.0993 145.902 26.2304 146.233 26.2304H156.349C156.379 26.2303 156.409 26.2211 156.435 26.204C156.46 26.1869 156.48 26.1626 156.492 26.1343C156.504 26.106 156.507 26.0748 156.501 26.0447C156.495 26.0147 156.48 25.987 156.458 25.9653Z" fill="white"/>
<path d="M231.446 240.184C231.062 240.184 230.691 240.317 230.395 240.56C230.098 240.802 229.896 241.14 229.821 241.516C229.746 241.891 229.804 242.28 229.985 242.618C230.166 242.955 230.459 243.219 230.813 243.366C231.168 243.512 231.562 243.531 231.929 243.42C232.296 243.309 232.613 243.074 232.825 242.756C233.038 242.437 233.134 242.055 233.096 241.675C233.059 241.294 232.89 240.938 232.618 240.668C232.464 240.514 232.282 240.392 232.08 240.309C231.879 240.226 231.664 240.183 231.446 240.184Z" fill="white"/>
<path d="M240.674 233.57V233.565C240.621 233.335 240.505 233.124 240.339 232.957C240.173 232.789 239.964 232.672 239.734 232.617C237.883 232.166 234.972 232.646 231.746 233.935C228.643 235.139 225.805 236.932 223.388 239.216C222.728 239.871 222.115 240.571 221.553 241.312C220.312 241.226 219.067 241.426 217.915 241.895C214.329 243.469 213.305 247.499 213.033 249.153C212.993 249.388 213.009 249.629 213.078 249.858C213.147 250.086 213.268 250.295 213.431 250.469C213.595 250.643 213.796 250.777 214.02 250.86C214.244 250.944 214.484 250.974 214.721 250.95H214.729L218.724 250.515C218.729 250.566 218.734 250.613 218.739 250.655C218.79 251.141 219.007 251.594 219.354 251.939L221.303 253.886C221.648 254.232 222.102 254.449 222.589 254.5L222.723 254.514L222.288 258.494V258.502C222.267 258.705 222.286 258.909 222.344 259.104C222.403 259.299 222.499 259.481 222.627 259.639C222.756 259.797 222.914 259.928 223.094 260.024C223.273 260.121 223.47 260.182 223.673 260.203C223.72 260.208 223.768 260.21 223.816 260.211C223.903 260.211 223.989 260.204 224.074 260.19C225.742 259.922 229.778 258.913 231.352 255.316C231.818 254.17 232.019 252.934 231.939 251.701C232.685 251.141 233.389 250.529 234.047 249.87C236.335 247.481 238.134 244.671 239.345 241.596C240.63 238.414 241.114 235.487 240.674 233.57ZM234.025 244.406C233.515 244.916 232.865 245.263 232.157 245.404C231.449 245.545 230.715 245.473 230.048 245.198C229.381 244.923 228.81 244.456 228.409 243.857C228.008 243.259 227.793 242.555 227.793 241.835C227.793 241.114 228.006 240.41 228.407 239.811C228.808 239.212 229.378 238.745 230.044 238.469C230.711 238.193 231.445 238.121 232.153 238.261C232.861 238.401 233.512 238.747 234.022 239.256L234.025 239.259C234.709 239.931 235.097 240.847 235.105 241.805C235.112 242.763 234.737 243.685 234.064 244.368L234.025 244.406Z" fill="white"/>
<path d="M221.08 254.413C220.839 254.384 220.596 254.443 220.396 254.579C220 254.85 219.601 255.117 219.199 255.378C219.024 255.49 218.816 255.541 218.61 255.521C218.403 255.502 218.209 255.413 218.058 255.27C217.908 255.127 217.81 254.938 217.78 254.733C217.75 254.528 217.791 254.319 217.894 254.139L218.649 252.838C218.757 252.68 218.817 252.495 218.822 252.304C218.827 252.114 218.777 251.926 218.677 251.763C218.578 251.6 218.434 251.469 218.262 251.386C218.09 251.303 217.897 251.271 217.707 251.294C216.87 251.4 216.092 251.781 215.495 252.376C215.267 252.604 214.576 253.294 214.204 255.924C214.098 256.68 214.032 257.44 214.004 258.203C214.001 258.333 214.023 258.462 214.07 258.584C214.117 258.705 214.187 258.816 214.277 258.911C214.367 259.005 214.475 259.081 214.594 259.134C214.713 259.187 214.842 259.216 214.972 259.219C214.981 259.219 214.989 259.219 214.998 259.219H215.023C215.787 259.192 216.55 259.126 217.308 259.021C219.946 258.649 220.637 257.959 220.865 257.732C221.464 257.137 221.845 256.356 221.945 255.518C221.977 255.257 221.903 254.994 221.741 254.787C221.579 254.58 221.341 254.446 221.08 254.413Z" fill="white"/>
<path d="M65.764 268.6H63.4979C63.0472 268.6 62.6149 268.422 62.2961 268.104C61.9774 267.786 61.7983 267.354 61.7983 266.905V256.73C61.7983 256.28 61.9774 255.849 62.2961 255.531C62.6149 255.213 63.0472 255.034 63.4979 255.034H65.764C66.2148 255.034 66.6471 255.213 66.9658 255.531C67.2845 255.849 67.4636 256.28 67.4636 256.73V266.905C67.4636 267.354 67.2845 267.786 66.9658 268.104C66.6471 268.422 66.2148 268.6 65.764 268.6Z" fill="white"/>
<path d="M81.6267 268.6H79.3606C78.9098 268.6 78.4775 268.422 78.1588 268.104C77.8401 267.786 77.661 267.354 77.661 266.905V249.947C77.661 249.497 77.8401 249.066 78.1588 248.748C78.4775 248.43 78.9098 248.251 79.3606 248.251H81.6267C82.0775 248.251 82.5098 248.43 82.8285 248.748C83.1472 249.066 83.3263 249.497 83.3263 249.947V266.905C83.3263 267.354 83.1472 267.786 82.8285 268.104C82.5098 268.422 82.0775 268.6 81.6267 268.6Z" fill="white"/>
<path d="M89.5581 268.6H87.292C86.8412 268.6 86.4089 268.422 86.0902 268.104C85.7715 267.786 85.5924 267.354 85.5924 266.905V242.033C85.5924 241.584 85.7715 241.152 86.0902 240.834C86.4089 240.516 86.8412 240.338 87.292 240.338H89.5581C90.0088 240.338 90.4411 240.516 90.7599 240.834C91.0786 241.152 91.2577 241.584 91.2577 242.033V266.905C91.2577 267.354 91.0786 267.786 90.7599 268.104C90.4411 268.422 90.0088 268.6 89.5581 268.6Z" fill="white"/>
<path d="M73.6954 268.6H71.4293C70.9786 268.6 70.5463 268.422 70.2275 268.104C69.9088 267.786 69.7297 267.354 69.7297 266.905V236.381C69.7297 235.931 69.9088 235.5 70.2275 235.182C70.5463 234.864 70.9786 234.685 71.4293 234.685H73.6954C74.1462 234.685 74.5785 234.864 74.8972 235.182C75.2159 235.5 75.395 235.931 75.395 236.381V266.905C75.395 267.127 75.351 267.348 75.2656 267.554C75.1802 267.759 75.055 267.946 74.8972 268.104C74.7394 268.261 74.552 268.386 74.3458 268.471C74.1396 268.556 73.9186 268.6 73.6954 268.6Z" fill="white"/>
<path d="M266.352 115.377L264.733 113.761C264.362 113.391 263.859 113.182 263.335 113.181C262.81 113.179 262.306 113.385 261.934 113.753L250.677 124.118C250.264 124.483 250.011 124.995 249.974 125.545C249.962 125.817 250.006 126.09 250.104 126.344C250.203 126.599 250.353 126.831 250.545 127.026L252.963 129.465L252.967 129.469C253.341 129.841 253.847 130.051 254.374 130.052H254.447C254.721 130.037 254.988 129.968 255.235 129.849C255.481 129.731 255.702 129.565 255.884 129.361L266.345 118.182C266.718 117.812 266.93 117.309 266.932 116.784C266.934 116.259 266.727 115.755 266.357 115.382L266.352 115.377Z" fill="white"/>
<path d="M279.363 112.111L279.344 112.091L277.219 109.993C277.095 109.869 276.947 109.771 276.784 109.705C276.622 109.638 276.447 109.604 276.272 109.606C275.987 109.606 275.709 109.695 275.479 109.862C275.479 109.835 275.482 109.809 275.484 109.786C275.57 109.244 275.455 108.69 275.162 108.226C274.694 107.596 274.18 107.002 273.624 106.448L273.619 106.443C272.066 104.956 270.24 103.781 268.242 102.982C267.197 102.554 266.079 102.335 264.95 102.335C263.489 102.322 262.069 102.819 260.935 103.739C260.613 104.046 260.318 104.382 260.056 104.742C259.931 104.915 259.865 105.123 259.868 105.336C259.87 105.549 259.942 105.756 260.072 105.925C260.202 106.094 260.383 106.217 260.589 106.275C260.794 106.333 261.013 106.324 261.213 106.248C261.386 106.183 261.564 106.129 261.745 106.085C262.12 106.006 262.506 105.982 262.889 106.014C263.682 106.097 264.443 106.375 265.102 106.824C265.471 107.134 265.765 107.525 265.961 107.965C266.157 108.405 266.251 108.884 266.234 109.366C265.959 110.149 265.538 110.872 264.994 111.499C264.849 111.69 264.778 111.927 264.794 112.166C264.811 112.405 264.914 112.629 265.084 112.799L267.217 114.927C267.397 115.107 267.638 115.211 267.892 115.218C268.145 115.225 268.392 115.135 268.581 114.966C269.185 114.428 270.104 113.618 270.425 113.419C270.7 113.236 271.01 113.113 271.336 113.06C271.579 113.036 271.824 113.088 272.037 113.207C272.038 113.218 272.036 113.229 272.033 113.239C272.03 113.249 272.024 113.258 272.017 113.266L271.904 113.373L271.886 113.391C271.635 113.64 271.494 113.978 271.493 114.331C271.493 114.684 271.633 115.023 271.882 115.273L271.889 115.28L274.013 117.378C274.138 117.502 274.286 117.6 274.448 117.666C274.611 117.732 274.785 117.766 274.961 117.765C275.314 117.765 275.652 117.627 275.904 117.381L279.346 113.989C279.358 113.978 279.369 113.965 279.381 113.953C279.611 113.7 279.738 113.37 279.735 113.028C279.732 112.687 279.599 112.359 279.363 112.111Z" fill="white"/>
<path d="M36.2425 114.336C35.997 114.336 35.757 114.263 35.5528 114.127C35.3487 113.991 35.1896 113.798 35.0956 113.571C35.0016 113.345 34.9771 113.096 35.025 112.856C35.0729 112.615 35.1911 112.395 35.3647 112.221L38.2112 109.381L35.3647 106.541C35.1319 106.309 35.0011 105.994 35.0011 105.665C35.0011 105.337 35.1319 105.021 35.3647 104.789C35.5975 104.557 35.9133 104.426 36.2425 104.426C36.5718 104.426 36.8876 104.557 37.1204 104.789L40.8448 108.505C40.9601 108.62 41.0516 108.757 41.114 108.907C41.1764 109.057 41.2085 109.218 41.2085 109.381C41.2085 109.544 41.1764 109.705 41.114 109.855C41.0516 110.005 40.9601 110.142 40.8448 110.257L37.1204 113.973C37.0052 114.088 36.8684 114.18 36.7178 114.242C36.5671 114.304 36.4056 114.336 36.2425 114.336Z" fill="white"/>
<path d="M16.3789 118.052C16.2159 118.052 16.0545 118.02 15.9038 117.958C15.7532 117.895 15.6163 117.804 15.5011 117.689C15.3858 117.574 15.2943 117.438 15.2319 117.287C15.1696 117.137 15.1374 116.976 15.1375 116.813V115.575C15.1472 113.607 15.9346 111.723 17.3286 110.331C18.7227 108.94 20.6107 108.153 22.5826 108.142H38.7255C39.0548 108.142 39.3706 108.273 39.6034 108.505C39.8362 108.737 39.967 109.053 39.967 109.381C39.967 109.71 39.8362 110.025 39.6034 110.257C39.3706 110.489 39.0548 110.62 38.7255 110.62H22.5863C21.271 110.628 20.0119 111.153 19.0822 112.081C18.1525 113.009 17.6272 114.266 17.6204 115.578V116.813C17.6204 116.976 17.5883 117.137 17.5259 117.287C17.4635 117.438 17.3721 117.574 17.2568 117.689C17.1415 117.804 17.0047 117.895 16.854 117.958C16.7034 118.02 16.542 118.052 16.3789 118.052Z" fill="white"/>
<path d="M26.3108 127.961C26.1477 127.962 25.9862 127.93 25.8356 127.867C25.6849 127.805 25.5481 127.714 25.4329 127.599L21.7085 123.883C21.5932 123.767 21.5018 123.631 21.4394 123.481C21.377 123.33 21.3448 123.169 21.3448 123.007C21.3448 122.844 21.377 122.683 21.4394 122.533C21.5018 122.382 21.5932 122.246 21.7085 122.131L25.4329 118.415C25.6658 118.183 25.9815 118.053 26.3105 118.053C26.6396 118.053 26.9551 118.183 27.1878 118.416C27.4205 118.648 27.5513 118.963 27.5514 119.291C27.5516 119.619 27.4211 119.934 27.1886 120.166L24.3421 123.007L27.1886 125.847C27.3622 126.02 27.4805 126.241 27.5284 126.481C27.5763 126.721 27.5517 126.97 27.4577 127.197C27.3638 127.423 27.2046 127.617 27.0005 127.753C26.7963 127.889 26.5563 127.961 26.3108 127.961Z" fill="white"/>
<path d="M23.8278 124.245C23.4985 124.245 23.1827 124.115 22.9499 123.883C22.7171 123.65 22.5863 123.335 22.5863 123.007C22.5863 122.678 22.7171 122.363 22.9499 122.131C23.1827 121.898 23.4985 121.768 23.8278 121.768H39.967C41.2822 121.76 42.5414 121.235 43.4711 120.307C44.4008 119.379 44.926 118.122 44.9328 116.809V115.575C44.9328 115.246 45.0636 114.931 45.2965 114.699C45.5293 114.466 45.8451 114.336 46.1743 114.336C46.5036 114.336 46.8194 114.466 47.0522 114.699C47.285 114.931 47.4158 115.246 47.4158 115.575V116.813C47.4061 118.781 46.6187 120.665 45.2246 122.056C43.8306 123.448 41.9425 124.235 39.9706 124.245L23.8278 124.245Z" fill="white"/>
</g>
<defs>
<clipPath id="clip0_158_10329">
<rect width="493" height="404" fill="white"/>
</clipPath>
</defs>
</svg>
