<svg width="24" height="25" viewBox="0 0 24 25" fill="none" xmlns="http://www.w3.org/2000/svg">
<g clip-path="url(#clip0_151_5390)">
<path d="M11.75 1C5.28749 1 0 6.27574 0 12.7735C0 18.6485 4.30049 23.5247 9.91699 24.406V16.181H6.93249V12.7735H9.91699V10.1767C9.91699 7.22749 11.6677 5.60599 14.3585 5.60599C15.6392 5.60599 16.9787 5.82924 16.9787 5.82924V8.73149H15.4982C14.0412 8.73149 13.583 9.63624 13.583 10.5645V12.7735H16.8495L16.3207 16.181H13.583V24.406C16.3518 23.9687 18.8731 22.556 20.6916 20.4228C22.5102 18.2896 23.5063 15.5766 23.5 12.7735C23.5 6.27574 18.2125 1 11.75 1Z" fill="white"/>
</g>
<defs>
<clipPath id="clip0_151_5390">
<rect width="24" height="24" fill="white" transform="translate(0 0.5)"/>
</clipPath>
</defs>
</svg>
